<mxfile host="app.diagrams.net" modified="2021-08-04T11:26:03.627Z" agent="5.0 (Macintosh; Intel Mac OS X 10_15_7) AppleWebKit/537.36 (KHTML, like Gecko) Chrome/91.0.4472.114 Safari/537.36" etag="n5bD91zIS07MxhXZLaZX" version="14.9.4" type="github">
  <diagram name="Page-1" id="13e1069c-82ec-6db2-03f1-153e76fe0fe0">
    <mxGraphModel dx="2046" dy="544" grid="1" gridSize="10" guides="1" tooltips="1" connect="1" arrows="1" fold="1" page="1" pageScale="1" pageWidth="1100" pageHeight="850" background="none" math="0" shadow="0">
      <root>
        <mxCell id="0" />
        <mxCell id="1" parent="0" />
        <mxCell id="yj3SvAqM1KzRE79mG92k-12" value="" style="group" vertex="1" connectable="0" parent="1">
          <mxGeometry x="-1000" y="110" width="120" height="520" as="geometry" />
        </mxCell>
        <mxCell id="yj3SvAqM1KzRE79mG92k-5" value="Client" style="rounded=1;whiteSpace=wrap;html=1;direction=west;" vertex="1" parent="yj3SvAqM1KzRE79mG92k-12">
          <mxGeometry y="19.25925925925926" width="120" height="38.51851851851852" as="geometry" />
        </mxCell>
        <mxCell id="yj3SvAqM1KzRE79mG92k-11" value="" style="endArrow=none;dashed=1;html=1;dashPattern=1 3;strokeWidth=2;" edge="1" parent="yj3SvAqM1KzRE79mG92k-12">
          <mxGeometry width="50" height="50" relative="1" as="geometry">
            <mxPoint x="60" y="520" as="sourcePoint" />
            <mxPoint x="59.5" y="57.77777777777777" as="targetPoint" />
          </mxGeometry>
        </mxCell>
        <mxCell id="yj3SvAqM1KzRE79mG92k-21" value="" style="html=1;points=[];perimeter=orthogonalPerimeter;" vertex="1" parent="yj3SvAqM1KzRE79mG92k-12">
          <mxGeometry x="55" y="57.78" width="10" height="342.22" as="geometry" />
        </mxCell>
        <mxCell id="yj3SvAqM1KzRE79mG92k-13" value="" style="group" vertex="1" connectable="0" parent="1">
          <mxGeometry x="-840" y="110" width="120" height="520" as="geometry" />
        </mxCell>
        <mxCell id="yj3SvAqM1KzRE79mG92k-14" value="Original" style="rounded=1;whiteSpace=wrap;html=1;direction=west;" vertex="1" parent="yj3SvAqM1KzRE79mG92k-13">
          <mxGeometry y="19.25925925925926" width="120" height="38.51851851851852" as="geometry" />
        </mxCell>
        <mxCell id="yj3SvAqM1KzRE79mG92k-15" value="" style="endArrow=none;dashed=1;html=1;dashPattern=1 3;strokeWidth=2;" edge="1" parent="yj3SvAqM1KzRE79mG92k-13">
          <mxGeometry width="50" height="50" relative="1" as="geometry">
            <mxPoint x="60" y="520" as="sourcePoint" />
            <mxPoint x="59.5" y="57.77777777777777" as="targetPoint" />
          </mxGeometry>
        </mxCell>
        <mxCell id="yj3SvAqM1KzRE79mG92k-37" value="未获取到数据ASKING目标节点" style="edgeLabel;html=1;align=center;verticalAlign=middle;resizable=0;points=[];" vertex="1" connectable="0" parent="yj3SvAqM1KzRE79mG92k-15">
          <mxGeometry x="0.1986" y="1" relative="1" as="geometry">
            <mxPoint as="offset" />
          </mxGeometry>
        </mxCell>
        <mxCell id="yj3SvAqM1KzRE79mG92k-31" value="" style="html=1;points=[];perimeter=orthogonalPerimeter;" vertex="1" parent="yj3SvAqM1KzRE79mG92k-13">
          <mxGeometry x="55" y="57.78" width="10" height="142.22" as="geometry" />
        </mxCell>
        <mxCell id="yj3SvAqM1KzRE79mG92k-18" value="" style="group" vertex="1" connectable="0" parent="1">
          <mxGeometry x="-680" y="110" width="120" height="520" as="geometry" />
        </mxCell>
        <mxCell id="yj3SvAqM1KzRE79mG92k-19" value="Destination" style="rounded=1;whiteSpace=wrap;html=1;direction=west;" vertex="1" parent="yj3SvAqM1KzRE79mG92k-18">
          <mxGeometry y="19.25925925925926" width="120" height="38.51851851851852" as="geometry" />
        </mxCell>
        <mxCell id="yj3SvAqM1KzRE79mG92k-20" value="" style="endArrow=none;dashed=1;html=1;dashPattern=1 3;strokeWidth=2;" edge="1" parent="yj3SvAqM1KzRE79mG92k-18">
          <mxGeometry width="50" height="50" relative="1" as="geometry">
            <mxPoint x="60" y="520" as="sourcePoint" />
            <mxPoint x="59.5" y="57.77777777777777" as="targetPoint" />
          </mxGeometry>
        </mxCell>
        <mxCell id="yj3SvAqM1KzRE79mG92k-35" value="" style="html=1;points=[];perimeter=orthogonalPerimeter;" vertex="1" parent="yj3SvAqM1KzRE79mG92k-18">
          <mxGeometry x="55" y="210" width="10" height="190" as="geometry" />
        </mxCell>
        <mxCell id="yj3SvAqM1KzRE79mG92k-32" value="-MOVED:Destination" style="endArrow=classic;html=1;entryX=1.2;entryY=0.334;entryDx=0;entryDy=0;entryPerimeter=0;exitX=-0.4;exitY=0.782;exitDx=0;exitDy=0;exitPerimeter=0;" edge="1" parent="1" source="yj3SvAqM1KzRE79mG92k-31" target="yj3SvAqM1KzRE79mG92k-21">
          <mxGeometry width="50" height="50" relative="1" as="geometry">
            <mxPoint x="-790" y="240" as="sourcePoint" />
            <mxPoint x="-920" y="300" as="targetPoint" />
            <Array as="points" />
          </mxGeometry>
        </mxCell>
        <mxCell id="yj3SvAqM1KzRE79mG92k-33" value="" style="endArrow=classic;html=1;exitX=1.3;exitY=0.208;exitDx=0;exitDy=0;exitPerimeter=0;" edge="1" parent="1" source="yj3SvAqM1KzRE79mG92k-21" target="yj3SvAqM1KzRE79mG92k-31">
          <mxGeometry width="50" height="50" relative="1" as="geometry">
            <mxPoint x="-927" y="201.02" as="sourcePoint" />
            <mxPoint x="-1070" y="200.00000000000003" as="targetPoint" />
          </mxGeometry>
        </mxCell>
        <mxCell id="yj3SvAqM1KzRE79mG92k-34" value="get x" style="edgeLabel;html=1;align=center;verticalAlign=middle;resizable=0;points=[];" vertex="1" connectable="0" parent="yj3SvAqM1KzRE79mG92k-33">
          <mxGeometry x="0.0133" y="4" relative="1" as="geometry">
            <mxPoint as="offset" />
          </mxGeometry>
        </mxCell>
        <mxCell id="yj3SvAqM1KzRE79mG92k-36" value="" style="endArrow=classic;html=1;exitX=1;exitY=0.559;exitDx=0;exitDy=0;exitPerimeter=0;entryX=-0.3;entryY=0.216;entryDx=0;entryDy=0;entryPerimeter=0;" edge="1" parent="1" source="yj3SvAqM1KzRE79mG92k-21" target="yj3SvAqM1KzRE79mG92k-35">
          <mxGeometry width="50" height="50" relative="1" as="geometry">
            <mxPoint x="-720" y="400" as="sourcePoint" />
            <mxPoint x="-670" y="350" as="targetPoint" />
          </mxGeometry>
        </mxCell>
        <mxCell id="yj3SvAqM1KzRE79mG92k-38" value="" style="endArrow=classic;html=1;" edge="1" parent="1">
          <mxGeometry width="50" height="50" relative="1" as="geometry">
            <mxPoint x="-627" y="400" as="sourcePoint" />
            <mxPoint x="-932" y="398" as="targetPoint" />
          </mxGeometry>
        </mxCell>
        <mxCell id="yj3SvAqM1KzRE79mG92k-39" value="ok" style="edgeLabel;html=1;align=center;verticalAlign=middle;resizable=0;points=[];" vertex="1" connectable="0" parent="yj3SvAqM1KzRE79mG92k-38">
          <mxGeometry x="0.0098" y="1" relative="1" as="geometry">
            <mxPoint as="offset" />
          </mxGeometry>
        </mxCell>
        <mxCell id="yj3SvAqM1KzRE79mG92k-40" value="get x" style="endArrow=classic;html=1;exitX=1;exitY=0.559;exitDx=0;exitDy=0;exitPerimeter=0;entryX=0;entryY=0.267;entryDx=0;entryDy=0;entryPerimeter=0;" edge="1" parent="1">
          <mxGeometry width="50" height="50" relative="1" as="geometry">
            <mxPoint x="-935" y="440.00097999999997" as="sourcePoint" />
            <mxPoint x="-625" y="440.96999999999997" as="targetPoint" />
          </mxGeometry>
        </mxCell>
        <mxCell id="yj3SvAqM1KzRE79mG92k-41" value="result" style="endArrow=classic;html=1;exitX=-0.2;exitY=0.842;exitDx=0;exitDy=0;exitPerimeter=0;" edge="1" parent="1" source="yj3SvAqM1KzRE79mG92k-35">
          <mxGeometry width="50" height="50" relative="1" as="geometry">
            <mxPoint x="-720" y="400" as="sourcePoint" />
            <mxPoint x="-940" y="482" as="targetPoint" />
          </mxGeometry>
        </mxCell>
      </root>
    </mxGraphModel>
  </diagram>
</mxfile>
